<?xml version="1.0" encoding="UTF-8" standalone="no"?>
<svg
   xmlns:dc="http://purl.org/dc/elements/1.1/"
   xmlns:cc="http://creativecommons.org/ns#"
   xmlns:rdf="http://www.w3.org/1999/02/22-rdf-syntax-ns#"
   xmlns:svg="http://www.w3.org/2000/svg"
   xmlns="http://www.w3.org/2000/svg"
   xmlns:sodipodi="http://sodipodi.sourceforge.net/DTD/sodipodi-0.dtd"
   xmlns:inkscape="http://www.inkscape.org/namespaces/inkscape"
   enable-background="new 0 0 100 100"
   height="100px"
   id="Layer_1"
   version="1.1"
   viewBox="0 0 100 100"
   width="100px"
   xml:space="preserve"
   inkscape:version="0.91 r13725"
   sodipodi:docname="heart.svg"><metadata
     id="metadata15"><rdf:RDF><cc:Work
         rdf:about=""><dc:format>image/svg+xml</dc:format><dc:type
           rdf:resource="http://purl.org/dc/dcmitype/StillImage" /></cc:Work></rdf:RDF></metadata><defs
     id="defs13" /><sodipodi:namedview
     pagecolor="#ffffff"
     bordercolor="#666666"
     borderopacity="1"
     objecttolerance="10"
     gridtolerance="10"
     guidetolerance="10"
     inkscape:pageopacity="0"
     inkscape:pageshadow="2"
     inkscape:window-width="666"
     inkscape:window-height="480"
     id="namedview11"
     showgrid="false"
     inkscape:zoom="2.36"
     inkscape:cx="-12.044641"
     inkscape:cy="33.050847"
     inkscape:window-x="766"
     inkscape:window-y="199"
     inkscape:window-maximized="0"
     inkscape:current-layer="Layer_1" /><g
     id="g3"
     style="fill:#1a9850;fill-opacity:1"><path
       d="M13.087,43.361c0.155,0,0.312-0.018,0.47-0.056c1.074-0.258,1.735-1.338,1.477-2.412   c-0.392-1.628-0.59-3.294-0.59-4.953c0-9.861,7.64-17.885,17.03-17.885c9.718,0,16.839,6.77,16.934,16.098   c0.012,1.097,0.903,1.979,2,1.979s1.988-0.883,2-1.979c0.096-9.327,7.218-16.098,16.935-16.098c9.391,0,17.031,8.023,17.031,17.885   c0,1.635-0.191,3.273-0.57,4.87c-0.255,1.074,0.41,2.152,1.485,2.407c1.072,0.249,2.152-0.409,2.407-1.485   c0.449-1.898,0.678-3.847,0.678-5.792c0-12.067-9.435-21.885-21.031-21.885c-8.667,0-15.665,4.393-18.935,11.205   c-3.269-6.812-10.266-11.205-18.934-11.205c-11.596,0-21.03,9.817-21.03,21.885c0,1.974,0.236,3.955,0.701,5.889   C11.365,42.746,12.184,43.361,13.087,43.361z"
       fill="#231F20"
       id="path5"
       style="fill:#1a9850;fill-opacity:1" /><path
       d="M76.312,54.342L50.407,80.123l-25.73-25.61c-0.783-0.777-2.048-0.776-2.829,0.007   c-0.778,0.783-0.775,2.05,0.007,2.829l27.142,27.014c0.391,0.388,0.9,0.582,1.411,0.582s1.021-0.194,1.411-0.582l27.315-27.185   c0.782-0.779,0.786-2.046,0.007-2.829C78.359,53.566,77.095,53.562,76.312,54.342z"
       fill="#231F20"
       id="path7"
       style="fill:#1a9850;fill-opacity:1" /><path
       d="M95.5,46.507V46.5h-0.002c-0.467-0.379-1.054-0.615-1.703-0.615c-0.647,0-1.233,0.236-1.699,0.615h-29.14   c-0.466-0.379-1.053-0.615-1.7-0.615c-1.5,0-2.712,1.213-2.712,2.712c0,0.055,0.013,0.105,0.016,0.159L50.749,59.13L38.556,34.826   c0.059-0.223,0.101-0.452,0.101-0.693c0-1.496-1.214-2.711-2.711-2.711c-1.498,0-2.712,1.215-2.712,2.711   c0,0.069,0.016,0.134,0.021,0.202L24.102,46.5H6.913c-0.467-0.379-1.053-0.615-1.7-0.615c-1.501,0-2.713,1.213-2.713,2.712   c0,1.498,1.212,2.712,2.713,2.712c0.755,0,1.437-0.311,1.929-0.809H25.1c0.629,0,1.221-0.295,1.599-0.798l8.906-11.838   l12.229,24.377c-0.082,0.26-0.139,0.531-0.139,0.818c0,1.497,1.213,2.711,2.712,2.711c1.498,0,2.714-1.214,2.714-2.711   c0-0.13-0.021-0.254-0.038-0.379l8.594-11.415c0.585-0.092,1.11-0.362,1.508-0.766h28.683c0.491,0.498,1.173,0.809,1.928,0.809   c1.501,0,2.71-1.214,2.71-2.712C96.505,47.75,96.5,47.004,95.5,46.507z"
       fill="#231F20"
       id="path9"
       style="fill:#1a9850;fill-opacity:1" /></g></svg>